<svg width="245" height="231" viewBox="0 0 245 231" fill="none" xmlns="http://www.w3.org/2000/svg">
<path d="M1 20.9323C24.5413 20.9323 96.5904 31.3834 124.104 38.9578C137.738 42.7113 187.114 42.0456 215.603 39.8551C223.471 39.2502 231.452 35.9228 237.601 28.9026C240.519 25.5713 242.008 21.8824 242.905 17.475C243.803 13.0676 243.803 7.8421 240.319 5.15015C231.779 -1.44871 220.077 1.58728 215.247 2.44501C200.295 5.10036 207.752 28.797 207.29 67.8434C207.084 85.2555 211.236 97.4152 212.568 121.564C213.572 139.748 216.514 155.477 217.847 196.714C219.153 208.26 220.05 214.436 220.486 221.02C220.921 224.121 221.792 226.734 222.689 229.426" stroke="black" stroke-width="2" stroke-linecap="round"/>
</svg>
