<svg width="206" height="195" viewBox="0 0 206 195" fill="none" xmlns="http://www.w3.org/2000/svg">
<path d="M161.989 1C160.247 11.4511 159.35 22.0605 159.785 31.7198C160.146 39.7362 161.989 83.289 162.424 146.167C162.613 173.368 165.499 180.437 166.818 185.702C167.472 188.311 167.267 190.967 173.799 192.313C180.331 193.659 193.395 193.659 199.689 191.917C205.984 190.175 205.113 186.691 203.793 183.155C202.474 179.618 200.732 176.135 198.528 173.905C179.573 154.723 127.732 173.39 110.591 175.62C97.5499 177.317 85.5059 180.463 72.3101 183.089C68.7736 183.973 65.29 184.844 53.4797 185.293C41.6695 185.741 21.6382 185.741 1 185.741" stroke="black" stroke-width="2" stroke-linecap="round"/>
</svg>
