<svg width="224" height="233" viewBox="0 0 224 233" fill="none" xmlns="http://www.w3.org/2000/svg">
<path d="M32.1235 1C34.7627 16.8086 36.5045 36.0481 38.2727 53.7304C40.2444 73.4471 46.1638 101.183 48.8294 122.322C51.3179 142.058 56.7205 155.76 58.0796 189.133C58.48 198.963 54.1341 204.189 50.1885 209.454C39.1239 224.219 18.0832 229.71 11.4984 231.478C8.50343 232.282 5.78467 229.762 4.00323 227.123C0.270064 221.593 0.453562 213.057 2.19541 205.588C3.81559 198.641 13.623 198.066 18.8881 196.747C30.8961 193.737 45.2665 205.06 58.4623 214.297C71.2197 223.227 84.8539 224.431 136.595 224.893C149.065 224.458 155.161 223.587 168.317 223.138C181.474 222.689 201.505 222.689 222.143 222.689" stroke="black" stroke-width="2" stroke-linecap="round"/>
</svg>
